{"accessors":[{"name":"Circle.003_Circle.004-Mesh_positions","componentType":5126,"count":1679,"min":[-6.186017990112305,0.07117199897766113,-6.558699131011963],"max":[6.170259952545166,10.101088523864746,6.17310094833374],"type":"VEC3","bufferView":0,"byteOffset":0},{"name":"Circle.003_Circle.004-Mesh_normals","componentType":5126,"count":1679,"min":[-1,-1,-1],"max":[1,1,1],"type":"VEC3","bufferView":0,"byteOffset":20148},{"name":"Circle.003_Circle.004-Mesh_0_indices","componentType":5123,"count":720,"min":[0],"max":[463],"type":"SCALAR","bufferView":1,"byteOffset":0},{"name":"Circle.003_Circle.004-Mesh_1_indices","componentType":5123,"count":96,"min":[464],"max":[527],"type":"SCALAR","bufferView":1,"byteOffset":1440},{"name":"Circle.003_Circle.004-Mesh_2_indices","componentType":5123,"count":336,"min":[528],"max":[815],"type":"SCALAR","bufferView":1,"byteOffset":1632},{"name":"Circle.003_Circle.004-Mesh_3_indices","componentType":5123,"count":432,"min":[816],"max":[1090],"type":"SCALAR","bufferView":1,"byteOffset":2304},{"name":"Circle.003_Circle.004-Mesh_4_indices","componentType":5123,"count":552,"min":[1091],"max":[1474],"type":"SCALAR","bufferView":1,"byteOffset":3168},{"name":"Circle.003_Circle.004-Mesh_5_indices","componentType":5123,"count":348,"min":[1475],"max":[1678],"type":"SCALAR","bufferView":1,"byteOffset":4272}],"asset":{"generator":"obj2gltf","version":"2.0"},"buffers":[{"name":"Hamburger_01","byteLength":45264,"uri":"data:application/octet-stream;base64,"}],"bufferViews":[{"name":"bufferView_0","buffer":0,"byteLength":40296,"byteOffset":0,"byteStride":12,"target":34962},{"name":"bufferView_1","buffer":0,"byteLength":4968,"byteOffset":40296,"target":34963}],"materials":[{"name":"F44336","pbrMetallicRoughness":{"baseColorFactor":[0.956863,0.262745,0.211765,1],"metallicFactor":0,"roughnessFactor":0.903921569},"emissiveFactor":[0,0,0],"alphaMode":"OPAQUE","doubleSided":false},{"name":"FF5722","pbrMetallicRoughness":{"baseColorFactor":[1,0.341176,0.133333,1],"metallicFactor":0,"roughnessFactor":0.903921569},"emissiveFactor":[0,0,0],"alphaMode":"OPAQUE","doubleSided":false},{"name":"8BC34A","pbrMetallicRoughness":{"baseColorFactor":[0.545098,0.764706,0.290196,1],"metallicFactor":0,"roughnessFactor":0.903921569},"emissiveFactor":[0,0,0],"alphaMode":"OPAQUE","doubleSided":false},{"name":"DD9944","pbrMetallicRoughness":{"baseColorFactor":[0.866667,0.6,0.266667,1],"metallicFactor":0,"roughnessFactor":0.903921569},"emissiveFactor":[0,0,0],"alphaMode":"OPAQUE","doubleSided":false},{"name":"795548","pbrMetallicRoughness":{"baseColorFactor":[0.47451,0.333333,0.282353,1],"metallicFactor":0,"roughnessFactor":0.903921569},"emissiveFactor":[0,0,0],"alphaMode":"OPAQUE","doubleSided":false},{"name":"FF9800","pbrMetallicRoughness":{"baseColorFactor":[1,0.596078,0,1],"metallicFactor":0,"roughnessFactor":0.903921569},"emissiveFactor":[0,0,0],"alphaMode":"OPAQUE","doubleSided":false}],"meshes":[{"name":"Circle.003_Circle.004-Mesh","primitives":[{"attributes":{"POSITION":0,"NORMAL":1},"indices":2,"material":0,"mode":4},{"attributes":{"POSITION":0,"NORMAL":1},"indices":3,"material":1,"mode":4},{"attributes":{"POSITION":0,"NORMAL":1},"indices":4,"material":2,"mode":4},{"attributes":{"POSITION":0,"NORMAL":1},"indices":5,"material":3,"mode":4},{"attributes":{"POSITION":0,"NORMAL":1},"indices":6,"material":4,"mode":4},{"attributes":{"POSITION":0,"NORMAL":1},"indices":7,"material":5,"mode":4}]}],"nodes":[{"name":"Circle.003_Circle.004","mesh":0}],"scene":0,"scenes":[{"nodes":[0]}]}
