{"accessors":[{"name":"Circle.006-Mesh_positions","componentType":5126,"count":337,"min":[-4.9926629066467285,0,-4.992663860321045],"max":[4.992663860321045,4.310475826263428,4.992663860321045],"type":"VEC3","bufferView":0,"byteOffset":0},{"name":"Circle.006-Mesh_normals","componentType":5126,"count":337,"min":[-0.9239000082015991,-1,-0.9239000082015991],"max":[0.9239000082015991,0.9997000098228455,0.9239000082015991],"type":"VEC3","bufferView":0,"byteOffset":4044},{"name":"Circle.006-Mesh_0_indices","componentType":5123,"count":312,"min":[0],"max":[184],"type":"SCALAR","bufferView":1,"byteOffset":0},{"name":"Circle.006-Mesh_1_indices","componentType":5123,"count":48,"min":[185],"max":[216],"type":"SCALAR","bufferView":1,"byteOffset":624},{"name":"Circle.006-Mesh_2_indices","componentType":5123,"count":168,"min":[217],"max":[336],"type":"SCALAR","bufferView":1,"byteOffset":720}],"asset":{"generator":"obj2gltf","version":"2.0"},"buffers":[{"name":"Bowl_01","byteLength":9144,"uri":"data:application/octet-stream;base64,"}],"bufferViews":[{"name":"bufferView_0","buffer":0,"byteLength":8088,"byteOffset":0,"byteStride":12,"target":34962},{"name":"bufferView_1","buffer":0,"byteLength":1056,"byteOffset":8088,"target":34963}],"materials":[{"name":"8BC34A","pbrMetallicRoughness":{"baseColorFactor":[0.545098,0.764706,0.290196,1],"metallicFactor":0,"roughnessFactor":0.903921569},"emissiveFactor":[0,0,0],"alphaMode":"OPAQUE","doubleSided":false},{"name":"F44336","pbrMetallicRoughness":{"baseColorFactor":[0.956863,0.262745,0.211765,1],"metallicFactor":0,"roughnessFactor":0.903921569},"emissiveFactor":[0,0,0],"alphaMode":"OPAQUE","doubleSided":false},{"name":"FFFFFF","pbrMetallicRoughness":{"baseColorFactor":[1,1,1,1],"metallicFactor":0,"roughnessFactor":0.903921569},"emissiveFactor":[0,0,0],"alphaMode":"OPAQUE","doubleSided":false}],"meshes":[{"name":"Circle.006-Mesh","primitives":[{"attributes":{"POSITION":0,"NORMAL":1},"indices":2,"material":0,"mode":4},{"attributes":{"POSITION":0,"NORMAL":1},"indices":3,"material":1,"mode":4},{"attributes":{"POSITION":0,"NORMAL":1},"indices":4,"material":2,"mode":4}]}],"nodes":[{"name":"Circle.006","mesh":0}],"scene":0,"scenes":[{"nodes":[0]}]}
