{"accessors":[{"name":"Blackboard_Q-Mesh_positions","componentType":5126,"count":72,"min":[-0.6022869944572449,-0.29128599166870117,-0.0005699999746866524],"max":[0.6028310060501099,0.29101601243019104,0.010780000127851963],"type":"VEC3","bufferView":0,"byteOffset":0},{"name":"Blackboard_Q-Mesh_normals","componentType":5126,"count":72,"min":[-0.707099974155426,-0.707099974155426,-0.9053999781608582],"max":[0.707099974155426,0.707099974155426,1],"type":"VEC3","bufferView":0,"byteOffset":864},{"name":"Blackboard_Q-Mesh_texcoords","componentType":5126,"count":72,"min":[0.005100000184029341,0.00800000037997961],"max":[0.9904000163078308,0.9948999881744385],"type":"VEC2","bufferView":1,"byteOffset":0},{"name":"Blackboard_Q-Mesh_0_indices","componentType":5123,"count":156,"min":[0],"max":[71],"type":"SCALAR","bufferView":2,"byteOffset":0}],"asset":{"generator":"obj2gltf","version":"2.0"},"buffers":[{"name":"Blackboard","byteLength":26212,"uri":"data:application/octet-stream;base64,"}],"bufferViews":[{"name":"bufferView_0","buffer":0,"byteLength":1728,"byteOffset":0,"byteStride":12,"target":34962},{"name":"bufferView_1","buffer":0,"byteLength":576,"byteOffset":1728,"byteStride":8,"target":34962},{"name":"bufferView_2","buffer":0,"byteLength":312,"byteOffset":2304,"target":34963},{"buffer":0,"byteOffset":2616,"byteLength":23593}],"images":[{"name":"DefaultMaterial_Base_Color","mimeType":"image/png","bufferView":3}],"materials":[{"name":"phong1SG","pbrMetallicRoughness":{"baseColorTexture":{"index":0},"baseColorFactor":[1,1,1,1],"metallicFactor":0,"roughnessFactor":0.997},"emissiveFactor":[0,0,0],"alphaMode":"OPAQUE","doubleSided":false}],"meshes":[{"name":"Blackboard_Q-Mesh","primitives":[{"attributes":{"POSITION":0,"NORMAL":1,"TEXCOORD_0":2},"indices":3,"material":0,"mode":4}]}],"nodes":[{"name":"Blackboard_Q","mesh":0}],"samplers":[{"magFilter":9729,"minFilter":9986,"wrapS":10497,"wrapT":10497}],"scene":0,"scenes":[{"nodes":[0]}],"textures":[{"name":"DefaultMaterial_Base_Color","sampler":0,"source":0}]}
