{"accessors":[{"name":"mesh489012986_positions","componentType":5126,"count":34,"min":[-0.28718268871307373,-0.2364065945148468,-0.27758049964904785],"max":[0.2775701880455017,-0.1660623997449875,0.2770960032939911],"type":"VEC3","bufferView":0,"byteOffset":0},{"name":"mesh489012986_normals","componentType":5126,"count":34,"min":[-0.7580658793449402,-0.9970983266830444,-0.7117701172828674],"max":[0.6942471861839294,0.9980648756027222,0.8122979998588562],"type":"VEC3","bufferView":0,"byteOffset":23304},{"name":"mesh489012986_texcoords","componentType":5126,"count":34,"min":[-0.07978103309869766,0.8509989976882935],"max":[0.08665289729833603,1.0121508836746216],"type":"VEC2","bufferView":1,"byteOffset":0},{"name":"mesh489012986_0_indices","componentType":5123,"count":36,"min":[0],"max":[33],"type":"SCALAR","bufferView":2,"byteOffset":0},{"name":"mesh1494561712_positions","componentType":5126,"count":72,"min":[0.04305725917220116,0.06320440769195557,-0.0869031697511673],"max":[0.05272454023361206,0.0730978325009346,-0.07721049338579178],"type":"VEC3","bufferView":0,"byteOffset":408},{"name":"mesh1494561712_normals","componentType":5126,"count":72,"min":[-0.9718148112297058,-0.9958093762397766,-0.9725608825683594],"max":[0.9718148112297058,0.9958093762397766,0.9725608825683594],"type":"VEC3","bufferView":0,"byteOffset":23712},{"name":"mesh1494561712_texcoords","componentType":5126,"count":72,"min":[-0.10585830360651016,0.8504229784011841],"max":[0.10585830360651016,0.8972845077514648],"type":"VEC2","bufferView":1,"byteOffset":272},{"name":"mesh1494561712_0_indices","componentType":5123,"count":132,"min":[0],"max":[71],"type":"SCALAR","bufferView":2,"byteOffset":72},{"name":"mesh821325937_positions","componentType":5126,"count":72,"min":[0.033418770879507065,0.060833100229501724,-0.07176881283521652],"max":[0.04258286952972412,0.07002127170562744,-0.0626041367650032],"type":"VEC3","bufferView":0,"byteOffset":1272},{"name":"mesh821325937_normals","componentType":5126,"count":72,"min":[-0.9729825258255005,-0.9999659061431885,-0.9729902148246765],"max":[0.9729825258255005,0.9999659061431885,0.972990095615387],"type":"VEC3","bufferView":0,"byteOffset":24576},{"name":"mesh821325937_texcoords","componentType":5126,"count":72,"min":[-0.10578910261392593,0.8435779809951782],"max":[0.10578910261392593,0.9125760793685913],"type":"VEC2","bufferView":1,"byteOffset":848},{"name":"mesh821325937_0_indices","componentType":5123,"count":132,"min":[0],"max":[71],"type":"SCALAR","bufferView":2,"byteOffset":336},{"name":"mesh438710673_positions","componentType":5126,"count":1728,"min":[-0.1700437068939209,-0.1955765038728714,-0.11608090251684189],"max":[0.126329705119133,0.0784754827618599,0.1388934999704361],"type":"VEC3","bufferView":0,"byteOffset":2136},{"name":"mesh438710673_normals","componentType":5126,"count":1728,"min":[-0.9983928203582764,-0.9999287128448486,-0.9996098875999451],"max":[0.9985812902450562,0.9996178150177002,0.9922425150871277],"type":"VEC3","bufferView":0,"byteOffset":25440},{"name":"mesh438710673_texcoords","componentType":5126,"count":1728,"min":[-0.11361689865589142,0.8268972039222717],"max":[0.11357580125331879,1.0629338026046753],"type":"VEC2","bufferView":1,"byteOffset":1424},{"name":"mesh438710673_0_indices","componentType":5123,"count":1356,"min":[0],"max":[873],"type":"SCALAR","bufferView":2,"byteOffset":600},{"name":"mesh438710673_1_indices","componentType":5123,"count":108,"min":[874],"max":[933],"type":"SCALAR","bufferView":2,"byteOffset":3312},{"name":"mesh438710673_2_indices","componentType":5123,"count":36,"min":[934],"max":[957],"type":"SCALAR","bufferView":2,"byteOffset":3528},{"name":"mesh438710673_3_indices","componentType":5123,"count":348,"min":[958],"max":[1185],"type":"SCALAR","bufferView":2,"byteOffset":3600},{"name":"mesh438710673_4_indices","componentType":5123,"count":708,"min":[1186],"max":[1665],"type":"SCALAR","bufferView":2,"byteOffset":4296},{"name":"mesh438710673_5_indices","componentType":5123,"count":78,"min":[1666],"max":[1727],"type":"SCALAR","bufferView":2,"byteOffset":5712},{"name":"mesh1487612751_positions","componentType":5126,"count":18,"min":[-0.166177898645401,0.009166479110717773,-0.05227284133434296],"max":[-0.14263589680194855,0.03311359882354736,0.00817184243351221],"type":"VEC3","bufferView":0,"byteOffset":22872},{"name":"mesh1487612751_normals","componentType":5126,"count":18,"min":[-0.9230239987373352,-0.5860394239425659,-0.9726058840751648],"max":[0.7313308715820312,0.9577531218528748,0.9726055860519409],"type":"VEC3","bufferView":0,"byteOffset":46176},{"name":"mesh1487612751_texcoords","componentType":5126,"count":18,"min":[-0.11099649965763092,0.8332527875900269],"max":[0.11034610122442245,0.9459127187728882],"type":"VEC2","bufferView":1,"byteOffset":15248},{"name":"mesh1487612751_0_indices","componentType":5123,"count":24,"min":[0],"max":[17],"type":"SCALAR","bufferView":2,"byteOffset":5868},{"name":"mesh984812262_positions","componentType":5126,"count":18,"min":[-0.15987250208854675,-0.007649898994714022,-0.05582500994205475],"max":[-0.13597330451011658,0.014035110361874104,0.004815980792045593],"type":"VEC3","bufferView":0,"byteOffset":23088},{"name":"mesh984812262_normals","componentType":5126,"count":18,"min":[-0.9218847155570984,-0.598969578742981,-0.9804190993309021],"max":[0.7297093868255615,0.9655061960220337,0.9804188013076782],"type":"VEC3","bufferView":0,"byteOffset":46392},{"name":"mesh984812262_texcoords","componentType":5126,"count":18,"min":[-0.10918349772691727,0.8348000049591064],"max":[0.1085181012749672,0.9470998644828796],"type":"VEC2","bufferView":1,"byteOffset":15392},{"name":"mesh984812262_0_indices","componentType":5123,"count":24,"min":[0],"max":[17],"type":"SCALAR","bufferView":2,"byteOffset":5916}],"asset":{"generator":"obj2gltf","version":"2.0"},"buffers":[{"name":"model","byteLength":68108,"uri":"data:application/octet-stream;base64,"}],"bufferViews":[{"name":"bufferView_0","buffer":0,"byteLength":46608,"byteOffset":0,"byteStride":12,"target":34962},{"name":"bufferView_1","buffer":0,"byteLength":15536,"byteOffset":46608,"byteStride":8,"target":34962},{"name":"bufferView_2","buffer":0,"byteLength":5964,"byteOffset":62144,"target":34963}],"materials":[{"name":"mat20","pbrMetallicRoughness":{"baseColorFactor":[0.47,0.33,0.28,1],"metallicFactor":0,"roughnessFactor":1},"emissiveFactor":[0,0,0],"alphaMode":"OPAQUE","doubleSided":false},{"name":"mat9","pbrMetallicRoughness":{"baseColorFactor":[0.55,0.76,0.29,1],"metallicFactor":0,"roughnessFactor":1},"emissiveFactor":[0,0,0],"alphaMode":"OPAQUE","doubleSided":false},{"name":"mat8","pbrMetallicRoughness":{"baseColorFactor":[0.96,0.26,0.21,1],"metallicFactor":0,"roughnessFactor":1},"emissiveFactor":[0,0,0],"alphaMode":"OPAQUE","doubleSided":false},{"name":"mat22","pbrMetallicRoughness":{"baseColorFactor":[0.62,0.62,0.62,1],"metallicFactor":0,"roughnessFactor":1},"emissiveFactor":[0,0,0],"alphaMode":"OPAQUE","doubleSided":false},{"name":"mat12","pbrMetallicRoughness":{"baseColorFactor":[1,0.92,0.23,1],"metallicFactor":0,"roughnessFactor":1},"emissiveFactor":[0,0,0],"alphaMode":"OPAQUE","doubleSided":false},{"name":"mat5","pbrMetallicRoughness":{"baseColorFactor":[0.01,0.61,0.9,1],"metallicFactor":0,"roughnessFactor":1},"emissiveFactor":[0,0,0],"alphaMode":"OPAQUE","doubleSided":false},{"name":"mat17","pbrMetallicRoughness":{"baseColorFactor":[0.27,0.35,0.39,1],"metallicFactor":0,"roughnessFactor":1},"emissiveFactor":[0,0,0],"alphaMode":"OPAQUE","doubleSided":false},{"name":"mat3","pbrMetallicRoughness":{"baseColorFactor":[0.5,0.87,0.92,1],"metallicFactor":0,"roughnessFactor":1},"emissiveFactor":[0,0,0],"alphaMode":"OPAQUE","doubleSided":false},{"name":"mat15","pbrMetallicRoughness":{"baseColorFactor":[0.81,0.85,0.86,1],"metallicFactor":0,"roughnessFactor":1},"emissiveFactor":[0,0,0],"alphaMode":"OPAQUE","doubleSided":false},{"name":"mat21","pbrMetallicRoughness":{"baseColorFactor":[1,1,1,1],"metallicFactor":0,"roughnessFactor":1},"emissiveFactor":[0,0,0],"alphaMode":"OPAQUE","doubleSided":false}],"meshes":[{"name":"mesh489012986","primitives":[{"attributes":{"POSITION":0,"NORMAL":1,"TEXCOORD_0":2},"indices":3,"material":0,"mode":4}]},{"name":"mesh1494561712","primitives":[{"attributes":{"POSITION":4,"NORMAL":5,"TEXCOORD_0":6},"indices":7,"material":1,"mode":4}]},{"name":"mesh821325937","primitives":[{"attributes":{"POSITION":8,"NORMAL":9,"TEXCOORD_0":10},"indices":11,"material":2,"mode":4}]},{"name":"mesh438710673","primitives":[{"attributes":{"POSITION":12,"NORMAL":13,"TEXCOORD_0":14},"indices":15,"material":3,"mode":4},{"attributes":{"POSITION":12,"NORMAL":13,"TEXCOORD_0":14},"indices":16,"material":4,"mode":4},{"attributes":{"POSITION":12,"NORMAL":13,"TEXCOORD_0":14},"indices":17,"material":5,"mode":4},{"attributes":{"POSITION":12,"NORMAL":13,"TEXCOORD_0":14},"indices":18,"material":6,"mode":4},{"attributes":{"POSITION":12,"NORMAL":13,"TEXCOORD_0":14},"indices":19,"material":7,"mode":4},{"attributes":{"POSITION":12,"NORMAL":13,"TEXCOORD_0":14},"indices":20,"material":8,"mode":4}]},{"name":"mesh1487612751","primitives":[{"attributes":{"POSITION":21,"NORMAL":22,"TEXCOORD_0":23},"indices":24,"material":9,"mode":4}]},{"name":"mesh984812262","primitives":[{"attributes":{"POSITION":25,"NORMAL":26,"TEXCOORD_0":27},"indices":28,"material":9,"mode":4}]}],"nodes":[{"name":"group489012986","mesh":0},{"name":"group1494561712","mesh":1},{"name":"group821325937","mesh":2},{"name":"group438710673","mesh":3},{"name":"group1487612751","mesh":4},{"name":"group984812262","mesh":5}],"scene":0,"scenes":[{"nodes":[0,1,2,3,4,5]}]}
