{"accessors":[{"name":"Cube.015_Cube.019-Mesh_positions","componentType":5126,"count":293,"min":[-0.3732199966907501,-0.3814760148525238,-1.0627080202102661],"max":[0.3902300000190735,0.3814780116081238,0.5834940075874329],"type":"VEC3","bufferView":0,"byteOffset":0},{"name":"Cube.015_Cube.019-Mesh_normals","componentType":5126,"count":293,"min":[-0.9861999750137329,-0.9257000088691711,-1],"max":[0.9883999824523926,0.9257000088691711,1],"type":"VEC3","bufferView":0,"byteOffset":3516},{"name":"Cube.015_Cube.019-Mesh_texcoords","componentType":5126,"count":293,"min":[0.06019999831914902,0.03420000150799751],"max":[0.9398000240325928,0.927299976348877],"type":"VEC2","bufferView":1,"byteOffset":0},{"name":"Cube.015_Cube.019-Mesh_0_indices","componentType":5123,"count":456,"min":[0],"max":[292],"type":"SCALAR","bufferView":2,"byteOffset":0}],"asset":{"generator":"obj2gltf","version":"2.0"},"buffers":[{"name":"CHAHIN_DRUMSTICK_CHICKEN","byteLength":10988,"uri":"data:application/octet-stream;base64,"}],"bufferViews":[{"name":"bufferView_0","buffer":0,"byteLength":7032,"byteOffset":0,"byteStride":12,"target":34962},{"name":"bufferView_1","buffer":0,"byteLength":2344,"byteOffset":7032,"byteStride":8,"target":34962},{"name":"bufferView_2","buffer":0,"byteLength":912,"byteOffset":9376,"target":34963},{"buffer":0,"byteOffset":10288,"byteLength":699}],"images":[{"name":"CHAHIN_DRUMSTICK_CHICKEN_TEXTURE","mimeType":"image/jpeg","bufferView":3}],"materials":[{"name":"Material.033","pbrMetallicRoughness":{"baseColorTexture":{"index":0},"baseColorFactor":[1,1,1,1],"metallicFactor":0,"roughnessFactor":0.903921569},"emissiveFactor":[0,0,0],"alphaMode":"OPAQUE","doubleSided":false}],"meshes":[{"name":"Cube.015_Cube.019-Mesh","primitives":[{"attributes":{"POSITION":0,"NORMAL":1,"TEXCOORD_0":2},"indices":3,"material":0,"mode":4}]}],"nodes":[{"name":"Cube.015_Cube.019","mesh":0}],"samplers":[{"magFilter":9729,"minFilter":9986,"wrapS":10497,"wrapT":10497}],"scene":0,"scenes":[{"nodes":[0]}],"textures":[{"name":"CHAHIN_DRUMSTICK_CHICKEN_TEXTURE","sampler":0,"source":0}]}
