{"accessors":[{"name":"Node-Mesh_positions","componentType":5126,"count":1416,"min":[-0.29684850573539734,-0.2933635115623474,-0.2744844853878021],"max":[0.28815171122550964,0.3416368067264557,0.3088490962982178],"type":"VEC3","bufferView":0,"byteOffset":0},{"name":"Node-Mesh_normals","componentType":5126,"count":1416,"min":[-1,-1,-1],"max":[1,1,1],"type":"VEC3","bufferView":0,"byteOffset":16992},{"name":"Node-Mesh_0_indices","componentType":5123,"count":1728,"min":[0],"max":[1151],"type":"SCALAR","bufferView":1,"byteOffset":0},{"name":"Node-Mesh_1_indices","componentType":5123,"count":216,"min":[1152],"max":[1295],"type":"SCALAR","bufferView":1,"byteOffset":3456},{"name":"Node-Mesh_2_indices","componentType":5123,"count":180,"min":[1296],"max":[1415],"type":"SCALAR","bufferView":1,"byteOffset":3888}],"asset":{"generator":"obj2gltf","version":"2.0"},"buffers":[{"name":"model","byteLength":38232,"uri":"data:application/octet-stream;base64,"}],"bufferViews":[{"name":"bufferView_0","buffer":0,"byteLength":33984,"byteOffset":0,"byteStride":12,"target":34962},{"name":"bufferView_1","buffer":0,"byteLength":4248,"byteOffset":33984,"target":34963}],"materials":[{"name":"mat17","pbrMetallicRoughness":{"baseColorFactor":[0.27,0.35,0.39,1],"metallicFactor":0,"roughnessFactor":1},"emissiveFactor":[0,0,0],"alphaMode":"OPAQUE","doubleSided":false},{"name":"mat16","pbrMetallicRoughness":{"baseColorFactor":[0.47,0.56,0.61,1],"metallicFactor":0,"roughnessFactor":1},"emissiveFactor":[0,0,0],"alphaMode":"OPAQUE","doubleSided":false},{"name":"mat18","pbrMetallicRoughness":{"baseColorFactor":[1,0.8,0.53,1],"metallicFactor":0,"roughnessFactor":1},"emissiveFactor":[0,0,0],"alphaMode":"OPAQUE","doubleSided":false}],"meshes":[{"name":"Node-Mesh","primitives":[{"attributes":{"POSITION":0,"NORMAL":1},"indices":2,"material":0,"mode":4},{"attributes":{"POSITION":0,"NORMAL":1},"indices":3,"material":1,"mode":4},{"attributes":{"POSITION":0,"NORMAL":1},"indices":4,"material":2,"mode":4}]}],"nodes":[{"name":"Node","mesh":0}],"scene":0,"scenes":[{"nodes":[0]}]}
